<svg xmlns="http://www.w3.org/2000/svg" viewBox="0 0 80 24" fill="white">
  <path d="M5.6 3.6h5.2c2.9 0 4.8 1.6 4.8 4.1 0 1.7-.9 3-2.4 3.5 1.8.5 2.9 1.9 2.9 3.8 0 2.7-2 4.4-5.1 4.4H5.6V3.6zm5 6.5c1.3 0 2.1-.7 2.1-1.8s-.8-1.8-2.1-1.8H8.4v3.6h2.2zm.3 6.8c1.4 0 2.3-.8 2.3-1.9 0-1.2-.9-2-2.3-2H8.4v3.9h2.5z"/>
  <path d="M22.8 15.5l-4.5-6.3h3.2l2.9 4.2 2.9-4.2h3.1l-4.5 6.2v3.9h-3.1v-3.8z"/>
  <path d="M33.1 3.6h5.2c2.9 0 4.8 1.6 4.8 4.1 0 1.7-.9 3-2.4 3.5 1.8.5 2.9 1.9 2.9 3.8 0 2.7-2 4.4-5.1 4.4h-5.4V3.6zm5 6.5c1.3 0 2.1-.7 2.1-1.8s-.8-1.8-2.1-1.8h-2.2v3.6h2.2zm.3 6.8c1.4 0 2.3-.8 2.3-1.9 0-1.2-.9-2-2.3-2h-2.5v3.9h2.5z"/>
  <path d="M46.6 3.6h3.1v15.8h-3.1V3.6z"/>
  <path d="M55.8 6.5h-3.9V3.6h10.9v2.9h-3.9v12.9h-3.1V6.5z"/>
</svg>