<svg xmlns="http://www.w3.org/2000/svg" viewBox="0 0 1000 324" fill="#fff"><path d="M431.986 1.009L356.258 322.556H289.393L365.121 1.009H431.986zM727.461 209.336L763.4 109.652l20.674 99.684H727.461zM803.903 322.556H864.25L811.48 1.009H755.908c-12.57 0-23.14 7.305-27.821 18.553L621.742 322.556h76.922l15.224-42.137h93.946L803.903 322.556zM629.894 210.672c.329-83.056-114.856-87.658-114.078-124.756 0.269-11.28 10.998-23.294 34.516-26.363 11.654-1.534 43.81-2.724 80.269 14.17L642.57 12.852C623.217 5.85 598.825 0.937 568.852 0.937c-72.43 0-123.416 38.478-123.827 93.596-0.456 40.764 36.38 63.457 64.112 77.002 28.542 13.876 38.121 22.758 38.004 35.153-0.197 18.989-22.758 27.379-43.831 27.705-36.822 0.562-58.18-9.953-75.229-17.898l-13.28 62.049c17.11 7.86 48.74 14.732 81.49 15.08 76.961 0.01 127.31-37.998 127.603-96.952zM383.15 1.009L271.507 322.556H193.859L138.661 56.412c-3.337-13.112-6.244-17.912-16.414-23.444C105.221 23.51 75.3 14.817 48.68 9.587L50.282 1.009H177.16c16.328 0 31.031 10.882 34.735 29.727l31.507 167.345L319.506 1.009H383.15z"/></svg>