<svg xmlns="http://www.w3.org/2000/svg" viewBox="0 0 1000 324" fill="white">
  <path d="M433.35 318.23H351.1L399.42 5.77h82.25L433.35 318.23z"/>
  <path d="M727.79 11.55c-16.27-6.24-41.86-12.92-73.73-12.92-81.26 0-138.53 41.85-138.97 101.8-.88 44.29 40.86 68.98 72.07 83.69 32.07 15.06 42.84 24.68 42.84 38.14-.44 20.59-25.7 30.01-49.4 30.01-32.96 0-50.49-4.67-77.51-16.18l-10.65-4.9-11.57 69.2c19.26 8.62 54.89 16.1 91.89 16.49 86.38 0 142.48-41.29 143.13-105.27.32-35.07-21.63-61.74-69.15-83.78-28.79-14.27-46.41-23.79-46.41-38.28.44-13.06 14.96-26.59 47.34-26.59 27.02-.44 46.58 5.59 61.8 11.83l7.4 3.57 11.21-67.35z"/>
  <path d="M837.43 208.81c6.78-17.69 32.74-85.94 32.74-85.94-.44.77 6.75-17.82 10.88-29.38l5.55 26.54s15.74 73.67 19.04 89.18H837.43v-.4z"/>
  <path d="M951.67 5.77H887.2c-19.96 0-34.92 5.57-43.63 25.93L709.32 318.23h86.38s14.12-37.89 17.31-46.22h105.54c2.46 10.76 9.99 46.22 9.99 46.22H1000L951.67 5.77z"/>
  <path d="M282.63 5.77l-80.58 213.05-8.63-42.73c-14.96-49.18-61.57-102.43-113.72-129.1l73.61 270.8h87.01L369.65 5.81H282.63V5.77z"/>
  <path d="M131.52 5.77H1.3L0 12.01c103.17 25.53 171.38 87.14 199.59 161.17L170.77 32.14C166.74 12.36 152.04 6.55 131.52 5.77z" opacity=".7"/>
</svg>